<svg id="visual" viewBox="0 0 675 960" width="675" height="960" xmlns="http://www.w3.org/2000/svg" xmlns:xlink="http://www.w3.org/1999/xlink" version="1.1"><rect x="0" y="0" width="675" height="960" fill="#001220"></rect><path d="M0 818L8.7 820.7C17.3 823.3 34.7 828.7 52 830C69.3 831.3 86.7 828.7 104 826.5C121.3 824.3 138.7 822.7 156 824.3C173.3 826 190.7 831 208 831.5C225.3 832 242.7 828 260 827.2C277.3 826.3 294.7 828.7 311.8 828.2C329 827.7 346 824.3 363.2 821.7C380.3 819 397.7 817 415 819.7C432.3 822.3 449.7 829.7 467 828.2C484.3 826.7 501.7 816.3 519 810.8C536.3 805.3 553.7 804.7 571 807.2C588.3 809.7 605.7 815.3 623 817.2C640.3 819 657.7 817 666.3 816L675 815L675 961L666.3 961C657.7 961 640.3 961 623 961C605.7 961 588.3 961 571 961C553.7 961 536.3 961 519 961C501.7 961 484.3 961 467 961C449.7 961 432.3 961 415 961C397.7 961 380.3 961 363.2 961C346 961 329 961 311.8 961C294.7 961 277.3 961 260 961C242.7 961 225.3 961 208 961C190.7 961 173.3 961 156 961C138.7 961 121.3 961 104 961C86.7 961 69.3 961 52 961C34.7 961 17.3 961 8.7 961L0 961Z" fill="#fa7268"></path><path d="M0 832L8.7 836C17.3 840 34.7 848 52 850.3C69.3 852.7 86.7 849.3 104 847.8C121.3 846.3 138.7 846.7 156 845C173.3 843.3 190.7 839.7 208 841.7C225.3 843.7 242.7 851.3 260 851.7C277.3 852 294.7 845 311.8 840.5C329 836 346 834 363.2 836.5C380.3 839 397.7 846 415 845.8C432.3 845.7 449.7 838.3 467 835.8C484.3 833.3 501.7 835.7 519 836.7C536.3 837.7 553.7 837.3 571 838.3C588.3 839.3 605.7 841.7 623 840.7C640.3 839.7 657.7 835.3 666.3 833.2L675 831L675 961L666.3 961C657.7 961 640.3 961 623 961C605.7 961 588.3 961 571 961C553.7 961 536.3 961 519 961C501.7 961 484.3 961 467 961C449.7 961 432.3 961 415 961C397.7 961 380.3 961 363.2 961C346 961 329 961 311.8 961C294.7 961 277.3 961 260 961C242.7 961 225.3 961 208 961C190.7 961 173.3 961 156 961C138.7 961 121.3 961 104 961C86.7 961 69.3 961 52 961C34.7 961 17.3 961 8.7 961L0 961Z" fill="#ef5f67"></path><path d="M0 888L8.7 888.2C17.3 888.3 34.7 888.7 52 883.8C69.3 879 86.7 869 104 865.8C121.3 862.7 138.7 866.3 156 869.3C173.3 872.3 190.7 874.7 208 876.2C225.3 877.7 242.7 878.3 260 879.2C277.3 880 294.7 881 311.8 882.5C329 884 346 886 363.2 883C380.3 880 397.7 872 415 867.5C432.3 863 449.7 862 467 861C484.3 860 501.7 859 519 860.7C536.3 862.3 553.7 866.7 571 866.8C588.3 867 605.7 863 623 860.5C640.3 858 657.7 857 666.3 856.5L675 856L675 961L666.3 961C657.7 961 640.3 961 623 961C605.7 961 588.3 961 571 961C553.7 961 536.3 961 519 961C501.7 961 484.3 961 467 961C449.7 961 432.3 961 415 961C397.7 961 380.3 961 363.2 961C346 961 329 961 311.8 961C294.7 961 277.3 961 260 961C242.7 961 225.3 961 208 961C190.7 961 173.3 961 156 961C138.7 961 121.3 961 104 961C86.7 961 69.3 961 52 961C34.7 961 17.3 961 8.7 961L0 961Z" fill="#e34c67"></path><path d="M0 913L8.7 910.2C17.3 907.3 34.7 901.7 52 899.5C69.3 897.3 86.7 898.7 104 898.3C121.3 898 138.7 896 156 894.5C173.3 893 190.7 892 208 895C225.3 898 242.7 905 260 905.2C277.3 905.3 294.7 898.7 311.8 896.2C329 893.7 346 895.3 363.2 897C380.3 898.7 397.7 900.3 415 902.2C432.3 904 449.7 906 467 906.2C484.3 906.3 501.7 904.7 519 905C536.3 905.3 553.7 907.7 571 905.5C588.3 903.3 605.7 896.7 623 894.5C640.3 892.3 657.7 894.7 666.3 895.8L675 897L675 961L666.3 961C657.7 961 640.3 961 623 961C605.7 961 588.3 961 571 961C553.7 961 536.3 961 519 961C501.7 961 484.3 961 467 961C449.7 961 432.3 961 415 961C397.7 961 380.3 961 363.2 961C346 961 329 961 311.8 961C294.7 961 277.3 961 260 961C242.7 961 225.3 961 208 961C190.7 961 173.3 961 156 961C138.7 961 121.3 961 104 961C86.7 961 69.3 961 52 961C34.7 961 17.3 961 8.7 961L0 961Z" fill="#d53867"></path><path d="M0 934L8.7 933.5C17.3 933 34.7 932 52 929.8C69.3 927.7 86.7 924.3 104 924.3C121.3 924.3 138.7 927.7 156 927.7C173.3 927.7 190.7 924.3 208 924.2C225.3 924 242.7 927 260 928.8C277.3 930.7 294.7 931.3 311.8 932.3C329 933.3 346 934.7 363.2 934C380.3 933.3 397.7 930.7 415 930.2C432.3 929.7 449.7 931.3 467 930.7C484.3 930 501.7 927 519 927.2C536.3 927.3 553.7 930.7 571 931.5C588.3 932.3 605.7 930.7 623 928.5C640.3 926.3 657.7 923.7 666.3 922.3L675 921L675 961L666.3 961C657.7 961 640.3 961 623 961C605.7 961 588.3 961 571 961C553.7 961 536.3 961 519 961C501.7 961 484.3 961 467 961C449.7 961 432.3 961 415 961C397.7 961 380.3 961 363.2 961C346 961 329 961 311.8 961C294.7 961 277.3 961 260 961C242.7 961 225.3 961 208 961C190.7 961 173.3 961 156 961C138.7 961 121.3 961 104 961C86.7 961 69.3 961 52 961C34.7 961 17.3 961 8.7 961L0 961Z" fill="#c62368"></path></svg>