<svg id="visual" viewBox="0 0 1366 768" width="1366" height="768" xmlns="http://www.w3.org/2000/svg" xmlns:xlink="http://www.w3.org/1999/xlink" version="1.1"><rect x="0" y="0" width="1366" height="768" fill="#001220"></rect><path d="M0 622L32.5 622.7C65 623.3 130 624.7 195 620.5C260 616.3 325 606.7 390 608.8C455 611 520 625 585.2 622C650.3 619 715.7 599 780.8 589C846 579 911 579 976 577.8C1041 576.7 1106 574.3 1171 576.3C1236 578.3 1301 584.7 1333.5 587.8L1366 591L1366 769L1333.5 769C1301 769 1236 769 1171 769C1106 769 1041 769 976 769C911 769 846 769 780.8 769C715.7 769 650.3 769 585.2 769C520 769 455 769 390 769C325 769 260 769 195 769C130 769 65 769 32.5 769L0 769Z" fill="#c62368"></path><path d="M0 620L32.5 622.2C65 624.3 130 628.7 195 631C260 633.3 325 633.7 390 632.8C455 632 520 630 585.2 635C650.3 640 715.7 652 780.8 648.8C846 645.7 911 627.3 976 625.7C1041 624 1106 639 1171 638.2C1236 637.3 1301 620.7 1333.5 612.3L1366 604L1366 769L1333.5 769C1301 769 1236 769 1171 769C1106 769 1041 769 976 769C911 769 846 769 780.8 769C715.7 769 650.3 769 585.2 769C520 769 455 769 390 769C325 769 260 769 195 769C130 769 65 769 32.5 769L0 769Z" fill="#d53867"></path><path d="M0 645L32.5 648C65 651 130 657 195 659C260 661 325 659 390 656.2C455 653.3 520 649.7 585.2 649.8C650.3 650 715.7 654 780.8 663.7C846 673.3 911 688.7 976 695.2C1041 701.7 1106 699.3 1171 697.3C1236 695.3 1301 693.7 1333.5 692.8L1366 692L1366 769L1333.5 769C1301 769 1236 769 1171 769C1106 769 1041 769 976 769C911 769 846 769 780.8 769C715.7 769 650.3 769 585.2 769C520 769 455 769 390 769C325 769 260 769 195 769C130 769 65 769 32.5 769L0 769Z" fill="#e34c67"></path><path d="M0 682L32.5 689.3C65 696.7 130 711.3 195 711.3C260 711.3 325 696.7 390 695C455 693.3 520 704.7 585.2 704.7C650.3 704.7 715.7 693.3 780.8 686.5C846 679.7 911 677.3 976 680.7C1041 684 1106 693 1171 699C1236 705 1301 708 1333.5 709.5L1366 711L1366 769L1333.5 769C1301 769 1236 769 1171 769C1106 769 1041 769 976 769C911 769 846 769 780.8 769C715.7 769 650.3 769 585.2 769C520 769 455 769 390 769C325 769 260 769 195 769C130 769 65 769 32.5 769L0 769Z" fill="#ef5f67"></path><path d="M0 740L32.5 737.8C65 735.7 130 731.3 195 732.8C260 734.3 325 741.7 390 743.3C455 745 520 741 585.2 740.2C650.3 739.3 715.7 741.7 780.8 743.3C846 745 911 746 976 743.7C1041 741.3 1106 735.7 1171 729.7C1236 723.7 1301 717.3 1333.5 714.2L1366 711L1366 769L1333.5 769C1301 769 1236 769 1171 769C1106 769 1041 769 976 769C911 769 846 769 780.8 769C715.7 769 650.3 769 585.2 769C520 769 455 769 390 769C325 769 260 769 195 769C130 769 65 769 32.5 769L0 769Z" fill="#fa7268"></path></svg>