<svg id="visual" viewBox="0 0 430 250" width="430" height="250" xmlns="http://www.w3.org/2000/svg" xmlns:xlink="http://www.w3.org/1999/xlink" version="1.1"><g stroke-width="1" stroke-linejoin="bevel"><path d="M214.5 102.7L198 115L235.5 114Z" fill="#297ea6" stroke="#297ea6"></path><path d="M198 115L198.5 149.3L235.5 114Z" fill="#19435d" stroke="#19435d"></path><path d="M246 139.3L248 127.5L235.5 114Z" fill="#0c2435" stroke="#0c2435"></path><path d="M191 127.8L198.5 149.3L198 115Z" fill="#00101c" stroke="#00101c"></path><path d="M242 149L246 139.3L235.5 114Z" fill="#081a28" stroke="#081a28"></path><path d="M246 139.3L251.5 128.8L248 127.5Z" fill="#0c2435" stroke="#0c2435"></path><path d="M248 127.5L258 116.3L235.5 114Z" fill="#246688" stroke="#246688"></path><path d="M198.5 149.3L242 149L235.5 114Z" fill="#19435d" stroke="#19435d"></path><path d="M246 139.3L267 147.7L251.5 128.8Z" fill="#0c2435" stroke="#0c2435"></path><path d="M198 115L179 123.5L191 127.8Z" fill="#19435d" stroke="#19435d"></path><path d="M191 127.8L182 140.5L198.5 149.3Z" fill="#297ea6" stroke="#297ea6"></path><path d="M156 126.2L179 123.5L148 98Z" fill="#205a7a" stroke="#205a7a"></path><path d="M179 123.5L182 140.5L191 127.8Z" fill="#205a7a" stroke="#205a7a"></path><path d="M251.5 128.8L258 116.3L248 127.5Z" fill="#297ea6" stroke="#297ea6"></path><path d="M235.5 114L248.5 95.3L214.5 102.7Z" fill="#15384f" stroke="#15384f"></path><path d="M279.5 127.5L258 116.3L251.5 128.8Z" fill="#081a28" stroke="#081a28"></path><path d="M258 116.3L248.5 95.3L235.5 114Z" fill="#081a28" stroke="#081a28"></path><path d="M179 123.5L176 140L182 140.5Z" fill="#112e42" stroke="#112e42"></path><path d="M182 140.5L183.5 153.5L198.5 149.3Z" fill="#112e42" stroke="#112e42"></path><path d="M176.5 155L183.5 153.5L182 140.5Z" fill="#246688" stroke="#246688"></path><path d="M198.5 149.3L234.5 165.2L242 149Z" fill="#277297" stroke="#277297"></path><path d="M240.5 181.5L234.5 165.2L210 202.3Z" fill="#1d4e6b" stroke="#1d4e6b"></path><path d="M242 149L267 147.7L246 139.3Z" fill="#19435d" stroke="#19435d"></path><path d="M176 140L176.5 155L182 140.5Z" fill="#277297" stroke="#277297"></path><path d="M210 202.3L234.5 165.2L198.5 149.3Z" fill="#15384f" stroke="#15384f"></path><path d="M256.5 168.2L267 147.7L242 149Z" fill="#1d4e6b" stroke="#1d4e6b"></path><path d="M258 116.3L254.5 77.3L248.5 95.3Z" fill="#1d4e6b" stroke="#1d4e6b"></path><path d="M248.5 95.3L254.5 77.3L214.5 102.7Z" fill="#15384f" stroke="#15384f"></path><path d="M169.5 76.2L179 123.5L198 115Z" fill="#0c2435" stroke="#0c2435"></path><path d="M263 68L254.5 77.3L293.5 71Z" fill="#00101c" stroke="#00101c"></path><path d="M234.5 165.2L256.5 168.2L242 149Z" fill="#00101c" stroke="#00101c"></path><path d="M169.5 76.2L198 115L214.5 102.7Z" fill="#246688" stroke="#246688"></path><path d="M179 123.5L156 126.2L176 140Z" fill="#081a28" stroke="#081a28"></path><path d="M146 156.3L151 162.8L176.5 155Z" fill="#00101c" stroke="#00101c"></path><path d="M301 153.8L279.5 127.5L267 147.7Z" fill="#297ea6" stroke="#297ea6"></path><path d="M267 147.7L279.5 127.5L251.5 128.8Z" fill="#15384f" stroke="#15384f"></path><path d="M174 174.7L198.5 149.3L183.5 153.5Z" fill="#246688" stroke="#246688"></path><path d="M234.5 165.2L240.5 181.5L256.5 168.2Z" fill="#19435d" stroke="#19435d"></path><path d="M275.5 178.5L272.5 159.2L256.5 168.2Z" fill="#00101c" stroke="#00101c"></path><path d="M256.5 168.2L272.5 159.2L267 147.7Z" fill="#081a28" stroke="#081a28"></path><path d="M202 48.8L169.5 76.2L214.5 102.7Z" fill="#19435d" stroke="#19435d"></path><path d="M151 162.8L174 174.7L176.5 155Z" fill="#246688" stroke="#246688"></path><path d="M176.5 155L174 174.7L183.5 153.5Z" fill="#205a7a" stroke="#205a7a"></path><path d="M293.5 71L254.5 77.3L258 116.3Z" fill="#297ea6" stroke="#297ea6"></path><path d="M242.5 48.5L202 48.8L214.5 102.7Z" fill="#1d4e6b" stroke="#1d4e6b"></path><path d="M169.5 76.2L148 98L179 123.5Z" fill="#1d4e6b" stroke="#1d4e6b"></path><path d="M242.5 48.5L214.5 102.7L254.5 77.3Z" fill="#081a28" stroke="#081a28"></path><path d="M146 156.3L176 140L156 126.2Z" fill="#246688" stroke="#246688"></path><path d="M146 156.3L176.5 155L176 140Z" fill="#205a7a" stroke="#205a7a"></path><path d="M293.5 71L265.5 61.8L263 68Z" fill="#297ea6" stroke="#297ea6"></path><path d="M263 68L242.5 48.5L254.5 77.3Z" fill="#1d4e6b" stroke="#1d4e6b"></path><path d="M127 134.2L146 156.3L156 126.2Z" fill="#15384f" stroke="#15384f"></path><path d="M253.5 48.2L242.5 48.5L263 68Z" fill="#00101c" stroke="#00101c"></path><path d="M207 44.2L204.5 45.2L202 48.8Z" fill="#297ea6" stroke="#297ea6"></path><path d="M202 48.8L155.5 54.7L169.5 76.2Z" fill="#205a7a" stroke="#205a7a"></path><path d="M160.5 185.7L185 195.7L174 174.7Z" fill="#081a28" stroke="#081a28"></path><path d="M174 174.7L185 195.7L198.5 149.3Z" fill="#205a7a" stroke="#205a7a"></path><path d="M185 195.7L210 202.3L198.5 149.3Z" fill="#1d4e6b" stroke="#1d4e6b"></path><path d="M146 156.3L150.5 166.8L151 162.8Z" fill="#1d4e6b" stroke="#1d4e6b"></path><path d="M151 162.8L150.5 166.8L174 174.7Z" fill="#297ea6" stroke="#297ea6"></path><path d="M242.5 48.5L207 44.2L202 48.8Z" fill="#246688" stroke="#246688"></path><path d="M265.5 61.8L264 58.2L263 68Z" fill="#112e42" stroke="#112e42"></path><path d="M258 201.5L275.5 178.5L256.5 168.2Z" fill="#00101c" stroke="#00101c"></path><path d="M272.5 159.2L301 153.8L267 147.7Z" fill="#297ea6" stroke="#297ea6"></path><path d="M258 201.5L256.5 168.2L240.5 181.5Z" fill="#081a28" stroke="#081a28"></path><path d="M264 58.2L253.5 48.2L263 68Z" fill="#297ea6" stroke="#297ea6"></path><path d="M242.5 48.5L229.5 37.8L207 44.2Z" fill="#205a7a" stroke="#205a7a"></path><path d="M150.5 166.8L160.5 185.7L174 174.7Z" fill="#205a7a" stroke="#205a7a"></path><path d="M253.5 48.2L241.5 41.7L242.5 48.5Z" fill="#246688" stroke="#246688"></path><path d="M185 195.7L188 203.3L210 202.3Z" fill="#277297" stroke="#277297"></path><path d="M160.5 185.7L188 203.3L185 195.7Z" fill="#15384f" stroke="#15384f"></path><path d="M241.5 41.7L229.5 37.8L242.5 48.5Z" fill="#297ea6" stroke="#297ea6"></path><path d="M280.5 206.7L258 201.5L270.5 227.2Z" fill="#00101c" stroke="#00101c"></path><path d="M210 202.3L258 201.5L240.5 181.5Z" fill="#277297" stroke="#277297"></path><path d="M301.5 193.2L301 153.8L275.5 178.5Z" fill="#081a28" stroke="#081a28"></path><path d="M275.5 178.5L301 153.8L272.5 159.2Z" fill="#00101c" stroke="#00101c"></path><path d="M307 95.5L293.5 71L258 116.3Z" fill="#081a28" stroke="#081a28"></path><path d="M148 98L127 134.2L156 126.2Z" fill="#297ea6" stroke="#297ea6"></path><path d="M128 177.2L137.5 185L150.5 166.8Z" fill="#297ea6" stroke="#297ea6"></path><path d="M150.5 166.8L148.5 185.8L160.5 185.7Z" fill="#112e42" stroke="#112e42"></path><path d="M301 153.8L307 137.7L279.5 127.5Z" fill="#15384f" stroke="#15384f"></path><path d="M265.5 61.8L293.5 71L264 58.2Z" fill="#0c2435" stroke="#0c2435"></path><path d="M162.5 21.3L155.5 54.7L202 48.8Z" fill="#297ea6" stroke="#297ea6"></path><path d="M169.5 76.2L133 81.3L148 98Z" fill="#277297" stroke="#277297"></path><path d="M148 98L116.5 132.3L127 134.2Z" fill="#277297" stroke="#277297"></path><path d="M162.5 21.3L202 48.8L204.5 45.2Z" fill="#00101c" stroke="#00101c"></path><path d="M218 21.3L204.5 45.2L207 44.2Z" fill="#0c2435" stroke="#0c2435"></path><path d="M127 134.2L129 150.7L146 156.3Z" fill="#246688" stroke="#246688"></path><path d="M307 95.5L258 116.3L279.5 127.5Z" fill="#00101c" stroke="#00101c"></path><path d="M287.5 1.7L283 0L253.5 48.2Z" fill="#0c2435" stroke="#0c2435"></path><path d="M137.5 185L148.5 185.8L150.5 166.8Z" fill="#0c2435" stroke="#0c2435"></path><path d="M160.5 185.7L140 208.2L188 203.3Z" fill="#297ea6" stroke="#297ea6"></path><path d="M155.5 54.7L133 81.3L169.5 76.2Z" fill="#19435d" stroke="#19435d"></path><path d="M310.5 108.8L307 95.5L279.5 127.5Z" fill="#081a28" stroke="#081a28"></path><path d="M320 147.7L311.5 126.2L307 137.7Z" fill="#081a28" stroke="#081a28"></path><path d="M307 137.7L311.5 126.2L279.5 127.5Z" fill="#297ea6" stroke="#297ea6"></path><path d="M311.5 126.2L310.5 108.8L279.5 127.5Z" fill="#246688" stroke="#246688"></path><path d="M106 84.7L130 82.8L131 30.3Z" fill="#0c2435" stroke="#0c2435"></path><path d="M133 81.3L130 82.8L148 98Z" fill="#277297" stroke="#277297"></path><path d="M321.5 95.3L308 90.7L307 95.5Z" fill="#00101c" stroke="#00101c"></path><path d="M307 95.5L308 90.7L293.5 71Z" fill="#112e42" stroke="#112e42"></path><path d="M241.5 41.7L224 24.8L229.5 37.8Z" fill="#00101c" stroke="#00101c"></path><path d="M229.5 37.8L224 24.8L207 44.2Z" fill="#19435d" stroke="#19435d"></path><path d="M244.5 0L224 24.8L241.5 41.7Z" fill="#1d4e6b" stroke="#1d4e6b"></path><path d="M217 15.5L224 24.8L244.5 0Z" fill="#205a7a" stroke="#205a7a"></path><path d="M116.5 132.3L119 143.2L127 134.2Z" fill="#19435d" stroke="#19435d"></path><path d="M127 134.2L119 143.2L129 150.7Z" fill="#297ea6" stroke="#297ea6"></path><path d="M128 177.2L150.5 166.8L146 156.3Z" fill="#15384f" stroke="#15384f"></path><path d="M128 177.2L146 156.3L129 150.7Z" fill="#0c2435" stroke="#0c2435"></path><path d="M148.5 185.8L140 198.5L160.5 185.7Z" fill="#15384f" stroke="#15384f"></path><path d="M130 82.8L116.5 132.3L148 98Z" fill="#246688" stroke="#246688"></path><path d="M224 24.8L218 21.3L207 44.2Z" fill="#0c2435" stroke="#0c2435"></path><path d="M118 158.8L128 177.2L129 150.7Z" fill="#0c2435" stroke="#0c2435"></path><path d="M218.5 230.3L258 201.5L210 202.3Z" fill="#277297" stroke="#277297"></path><path d="M258 201.5L280.5 206.7L275.5 178.5Z" fill="#15384f" stroke="#15384f"></path><path d="M119 143.2L118 158.8L129 150.7Z" fill="#277297" stroke="#277297"></path><path d="M106.5 158L118 158.8L119 143.2Z" fill="#112e42" stroke="#112e42"></path><path d="M332 167.3L320 147.7L301 153.8Z" fill="#112e42" stroke="#112e42"></path><path d="M301 153.8L320 147.7L307 137.7Z" fill="#19435d" stroke="#19435d"></path><path d="M328.5 117.3L321.5 95.3L310.5 108.8Z" fill="#19435d" stroke="#19435d"></path><path d="M322.5 93.5L308 68.2L308 90.7Z" fill="#297ea6" stroke="#297ea6"></path><path d="M308 90.7L308 68.2L293.5 71Z" fill="#15384f" stroke="#15384f"></path><path d="M293.5 71L313 53.3L264 58.2Z" fill="#112e42" stroke="#112e42"></path><path d="M224 24.8L217 15.5L218 21.3Z" fill="#1d4e6b" stroke="#1d4e6b"></path><path d="M321.5 95.3L307 95.5L310.5 108.8Z" fill="#1d4e6b" stroke="#1d4e6b"></path><path d="M118 158.8L125.5 177.7L128 177.2Z" fill="#246688" stroke="#246688"></path><path d="M128 177.2L125.5 177.7L137.5 185Z" fill="#00101c" stroke="#00101c"></path><path d="M187.5 250L218.5 230.3L188 203.3Z" fill="#205a7a" stroke="#205a7a"></path><path d="M188 203.3L218.5 230.3L210 202.3Z" fill="#081a28" stroke="#081a28"></path><path d="M244.5 0L241.5 41.7L253 0Z" fill="#277297" stroke="#277297"></path><path d="M218 21.3L189.5 3.7L204.5 45.2Z" fill="#297ea6" stroke="#297ea6"></path><path d="M120 197.3L140 198.5L137.5 185Z" fill="#0c2435" stroke="#0c2435"></path><path d="M137.5 185L140 198.5L148.5 185.8Z" fill="#246688" stroke="#246688"></path><path d="M328.5 117.3L310.5 108.8L311.5 126.2Z" fill="#112e42" stroke="#112e42"></path><path d="M338 86.7L322.5 93.5L321.5 95.3Z" fill="#1d4e6b" stroke="#1d4e6b"></path><path d="M321.5 95.3L322.5 93.5L308 90.7Z" fill="#081a28" stroke="#081a28"></path><path d="M280.5 206.7L301.5 193.2L275.5 178.5Z" fill="#00101c" stroke="#00101c"></path><path d="M320 147.7L328.5 117.3L311.5 126.2Z" fill="#277297" stroke="#277297"></path><path d="M312 215.2L299 200.5L311.5 221.7Z" fill="#081a28" stroke="#081a28"></path><path d="M280.5 206.7L299 200.5L301.5 193.2Z" fill="#112e42" stroke="#112e42"></path><path d="M301.5 193.2L332 167.3L301 153.8Z" fill="#112e42" stroke="#112e42"></path><path d="M126.5 210.2L140 208.2L140 198.5Z" fill="#00101c" stroke="#00101c"></path><path d="M140 198.5L140 208.2L160.5 185.7Z" fill="#1d4e6b" stroke="#1d4e6b"></path><path d="M189.5 3.7L162.5 21.3L204.5 45.2Z" fill="#112e42" stroke="#112e42"></path><path d="M131 30.3L130 82.8L133 81.3Z" fill="#081a28" stroke="#081a28"></path><path d="M118 158.8L100.5 165.7L125.5 177.7Z" fill="#112e42" stroke="#112e42"></path><path d="M125.5 177.7L120 197.3L137.5 185Z" fill="#205a7a" stroke="#205a7a"></path><path d="M98.5 133.8L106.5 158L119 143.2Z" fill="#0c2435" stroke="#0c2435"></path><path d="M98.5 133.8L119 143.2L116.5 132.3Z" fill="#205a7a" stroke="#205a7a"></path><path d="M218.5 230.3L270.5 227.2L258 201.5Z" fill="#00101c" stroke="#00101c"></path><path d="M131 30.3L133 81.3L155.5 54.7Z" fill="#297ea6" stroke="#297ea6"></path><path d="M130 82.8L106 84.7L116.5 132.3Z" fill="#246688" stroke="#246688"></path><path d="M320.5 204.7L307 200.3L312 215.2Z" fill="#081a28" stroke="#081a28"></path><path d="M299 200.5L307 200.3L301.5 193.2Z" fill="#081a28" stroke="#081a28"></path><path d="M320 147.7L356 120.8L328.5 117.3Z" fill="#112e42" stroke="#112e42"></path><path d="M338 86.7L313 53.3L308 68.2Z" fill="#00101c" stroke="#00101c"></path><path d="M308 68.2L313 53.3L293.5 71Z" fill="#297ea6" stroke="#297ea6"></path><path d="M338 86.7L308 68.2L322.5 93.5Z" fill="#0c2435" stroke="#0c2435"></path><path d="M102.5 87.2L98.5 133.8L116.5 132.3Z" fill="#19435d" stroke="#19435d"></path><path d="M81 89.3L102.5 87.2L83 58.8Z" fill="#081a28" stroke="#081a28"></path><path d="M106 84.7L102.5 87.2L116.5 132.3Z" fill="#205a7a" stroke="#205a7a"></path><path d="M115.5 198.5L120 197.3L112.5 195.2Z" fill="#1d4e6b" stroke="#1d4e6b"></path><path d="M95 135.2L100 159.5L106.5 158Z" fill="#112e42" stroke="#112e42"></path><path d="M106.5 158L100.5 165.7L118 158.8Z" fill="#0c2435" stroke="#0c2435"></path><path d="M69.5 122.5L95 135.2L69 109.5Z" fill="#112e42" stroke="#112e42"></path><path d="M98.5 133.8L95 135.2L106.5 158Z" fill="#15384f" stroke="#15384f"></path><path d="M204 0L189.5 3.7L217 15.5Z" fill="#19435d" stroke="#19435d"></path><path d="M217 15.5L189.5 3.7L218 21.3Z" fill="#081a28" stroke="#081a28"></path><path d="M320.5 204.7L332 167.3L301.5 193.2Z" fill="#112e42" stroke="#112e42"></path><path d="M239 -12.3L204 0L217 15.5Z" fill="#246688" stroke="#246688"></path><path d="M69.5 173.8L100.5 165.7L100 159.5Z" fill="#112e42" stroke="#112e42"></path><path d="M100 159.5L100.5 165.7L106.5 158Z" fill="#205a7a" stroke="#205a7a"></path><path d="M120 197.3L126.5 210.2L140 198.5Z" fill="#00101c" stroke="#00101c"></path><path d="M140 208.2L155 233.2L188 203.3Z" fill="#00101c" stroke="#00101c"></path><path d="M115.5 198.5L126.5 210.2L120 197.3Z" fill="#297ea6" stroke="#297ea6"></path><path d="M253 0L241.5 41.7L253.5 48.2Z" fill="#00101c" stroke="#00101c"></path><path d="M126.5 210.2L155 233.2L140 208.2Z" fill="#297ea6" stroke="#297ea6"></path><path d="M112.5 195.2L120 197.3L125.5 177.7Z" fill="#1d4e6b" stroke="#1d4e6b"></path><path d="M356 120.8L338 86.7L328.5 117.3Z" fill="#19435d" stroke="#19435d"></path><path d="M328.5 117.3L338 86.7L321.5 95.3Z" fill="#081a28" stroke="#081a28"></path><path d="M125 16.8L131 30.3L162.5 21.3Z" fill="#297ea6" stroke="#297ea6"></path><path d="M162.5 21.3L131 30.3L155.5 54.7Z" fill="#112e42" stroke="#112e42"></path><path d="M100.5 165.7L112.5 195.2L125.5 177.7Z" fill="#0c2435" stroke="#0c2435"></path><path d="M191.5 256.2L224 250L218.5 230.3Z" fill="#15384f" stroke="#15384f"></path><path d="M218.5 230.3L231 250L270.5 227.2Z" fill="#15384f" stroke="#15384f"></path><path d="M224 250L231 250L218.5 230.3Z" fill="#112e42" stroke="#112e42"></path><path d="M343 193.7L336 169.2L332 167.3Z" fill="#205a7a" stroke="#205a7a"></path><path d="M332 167.3L358.5 150.5L320 147.7Z" fill="#00101c" stroke="#00101c"></path><path d="M100.5 165.7L111.5 195.3L112.5 195.2Z" fill="#15384f" stroke="#15384f"></path><path d="M112.5 195.2L111.5 195.3L115.5 198.5Z" fill="#205a7a" stroke="#205a7a"></path><path d="M115.5 198.5L101 220.2L126.5 210.2Z" fill="#0c2435" stroke="#0c2435"></path><path d="M283 0L253 0L253.5 48.2Z" fill="#112e42" stroke="#112e42"></path><path d="M180.5 0L170.5 3.5L189.5 3.7Z" fill="#00101c" stroke="#00101c"></path><path d="M189.5 3.7L170.5 3.5L162.5 21.3Z" fill="#205a7a" stroke="#205a7a"></path><path d="M192 -13.3L180.5 0L189.5 3.7Z" fill="#277297" stroke="#277297"></path><path d="M186 250L187.5 250L188 203.3Z" fill="#1d4e6b" stroke="#1d4e6b"></path><path d="M155 233.2L186 250L188 203.3Z" fill="#00101c" stroke="#00101c"></path><path d="M312 215.2L307 200.3L299 200.5Z" fill="#297ea6" stroke="#297ea6"></path><path d="M307 200.3L320.5 204.7L301.5 193.2Z" fill="#246688" stroke="#246688"></path><path d="M299 200.5L280.5 206.7L311.5 221.7Z" fill="#00101c" stroke="#00101c"></path><path d="M311.5 221.7L280.5 206.7L270.5 227.2Z" fill="#00101c" stroke="#00101c"></path><path d="M170.5 3.5L162.5 0L162.5 21.3Z" fill="#246688" stroke="#246688"></path><path d="M180.5 0L162.5 0L170.5 3.5Z" fill="#15384f" stroke="#15384f"></path><path d="M167 250L191.5 256.2L186 250Z" fill="#205a7a" stroke="#205a7a"></path><path d="M186 250L191.5 256.2L187.5 250Z" fill="#297ea6" stroke="#297ea6"></path><path d="M187.5 250L191.5 256.2L218.5 230.3Z" fill="#112e42" stroke="#112e42"></path><path d="M252.5 273.3L265.5 250L231 250Z" fill="#19435d" stroke="#19435d"></path><path d="M261 270.2L265.5 250L252.5 273.3Z" fill="#0c2435" stroke="#0c2435"></path><path d="M231 250L265.5 250L270.5 227.2Z" fill="#1d4e6b" stroke="#1d4e6b"></path><path d="M155 233.2L167 250L186 250Z" fill="#277297" stroke="#277297"></path><path d="M107.5 250L167 250L155 233.2Z" fill="#112e42" stroke="#112e42"></path><path d="M283 246.2L311.5 221.7L270.5 227.2Z" fill="#297ea6" stroke="#297ea6"></path><path d="M312 215.2L345 218.2L320.5 204.7Z" fill="#246688" stroke="#246688"></path><path d="M265.5 250L274 247.5L270.5 227.2Z" fill="#19435d" stroke="#19435d"></path><path d="M253 0L239 -12.3L244.5 0Z" fill="#112e42" stroke="#112e42"></path><path d="M244.5 0L239 -12.3L217 15.5Z" fill="#205a7a" stroke="#205a7a"></path><path d="M204 0L192 -13.3L189.5 3.7Z" fill="#246688" stroke="#246688"></path><path d="M180.5 0L181.5 -27.2L162.5 0Z" fill="#246688" stroke="#246688"></path><path d="M336 34.8L319.5 30.7L313 53.3Z" fill="#277297" stroke="#277297"></path><path d="M313 53.3L287.5 1.7L264 58.2Z" fill="#19435d" stroke="#19435d"></path><path d="M253 0L283 0L239 -12.3Z" fill="#15384f" stroke="#15384f"></path><path d="M239 -12.3L192 -13.3L204 0Z" fill="#081a28" stroke="#081a28"></path><path d="M358.5 150.5L356 120.8L320 147.7Z" fill="#081a28" stroke="#081a28"></path><path d="M338 86.7L336 34.8L313 53.3Z" fill="#297ea6" stroke="#297ea6"></path><path d="M285 250L283 246.2L274 247.5Z" fill="#00101c" stroke="#00101c"></path><path d="M274 247.5L283 246.2L270.5 227.2Z" fill="#205a7a" stroke="#205a7a"></path><path d="M287.5 1.7L253.5 48.2L264 58.2Z" fill="#0c2435" stroke="#0c2435"></path><path d="M83 58.8L102.5 87.2L106 84.7Z" fill="#19435d" stroke="#19435d"></path><path d="M102.5 87.2L81 89.3L98.5 133.8Z" fill="#205a7a" stroke="#205a7a"></path><path d="M95 135.2L69.5 143.2L100 159.5Z" fill="#1d4e6b" stroke="#1d4e6b"></path><path d="M319.5 30.7L287.5 1.7L313 53.3Z" fill="#00101c" stroke="#00101c"></path><path d="M133 0L125 16.8L162.5 21.3Z" fill="#297ea6" stroke="#297ea6"></path><path d="M131 30.3L83 58.8L106 84.7Z" fill="#081a28" stroke="#081a28"></path><path d="M133 0L162.5 21.3L162.5 0Z" fill="#277297" stroke="#277297"></path><path d="M287.5 1.7L285.5 0L283 0Z" fill="#205a7a" stroke="#205a7a"></path><path d="M283 0L316 -10.2L239 -12.3Z" fill="#19435d" stroke="#19435d"></path><path d="M290.5 0L288 0L287.5 1.7Z" fill="#0c2435" stroke="#0c2435"></path><path d="M287.5 1.7L288 0L285.5 0Z" fill="#112e42" stroke="#112e42"></path><path d="M285.5 0L316 -10.2L283 0Z" fill="#19435d" stroke="#19435d"></path><path d="M313.5 6.5L290.5 0L287.5 1.7Z" fill="#00101c" stroke="#00101c"></path><path d="M288 0L316 -10.2L285.5 0Z" fill="#00101c" stroke="#00101c"></path><path d="M261 270.2L274 247.5L265.5 250Z" fill="#246688" stroke="#246688"></path><path d="M261 270.2L285 250L274 247.5Z" fill="#15384f" stroke="#15384f"></path><path d="M283 246.2L289.5 250L311.5 221.7Z" fill="#1d4e6b" stroke="#1d4e6b"></path><path d="M350.5 180.7L358.5 150.5L336 169.2Z" fill="#297ea6" stroke="#297ea6"></path><path d="M336 169.2L358.5 150.5L332 167.3Z" fill="#19435d" stroke="#19435d"></path><path d="M343 193.7L332 167.3L320.5 204.7Z" fill="#277297" stroke="#277297"></path><path d="M345 218.2L312 215.2L311.5 221.7Z" fill="#19435d" stroke="#19435d"></path><path d="M345 218.2L343 193.7L320.5 204.7Z" fill="#081a28" stroke="#081a28"></path><path d="M343 193.7L350.5 180.7L336 169.2Z" fill="#246688" stroke="#246688"></path><path d="M308.5 269.3L289.5 250L285 250Z" fill="#297ea6" stroke="#297ea6"></path><path d="M285 250L289.5 250L283 246.2Z" fill="#277297" stroke="#277297"></path><path d="M69 109.5L95 135.2L98.5 133.8Z" fill="#15384f" stroke="#15384f"></path><path d="M79.5 210.5L101 220.2L111.5 195.3Z" fill="#1d4e6b" stroke="#1d4e6b"></path><path d="M378 50.5L336 34.8L338 86.7Z" fill="#205a7a" stroke="#205a7a"></path><path d="M319.5 30.7L313.5 6.5L287.5 1.7Z" fill="#0c2435" stroke="#0c2435"></path><path d="M81 89.3L69 109.5L98.5 133.8Z" fill="#081a28" stroke="#081a28"></path><path d="M112.5 15.7L83 58.8L131 30.3Z" fill="#277297" stroke="#277297"></path><path d="M38 75.8L40 105.7L69 109.5Z" fill="#205a7a" stroke="#205a7a"></path><path d="M64 126.5L69.5 143.2L69.5 122.5Z" fill="#19435d" stroke="#19435d"></path><path d="M69.5 122.5L69.5 143.2L95 135.2Z" fill="#297ea6" stroke="#297ea6"></path><path d="M147.5 -25.2L133 0L162.5 0Z" fill="#1d4e6b" stroke="#1d4e6b"></path><path d="M125 16.8L112.5 15.7L131 30.3Z" fill="#00101c" stroke="#00101c"></path><path d="M373.5 98L364.5 101.2L356 120.8Z" fill="#205a7a" stroke="#205a7a"></path><path d="M356 120.8L364.5 101.2L338 86.7Z" fill="#0c2435" stroke="#0c2435"></path><path d="M350.5 180.7L368 159L358.5 150.5Z" fill="#1d4e6b" stroke="#1d4e6b"></path><path d="M343 193.7L354.5 182.8L350.5 180.7Z" fill="#277297" stroke="#277297"></path><path d="M364.5 225.7L354.5 182.8L343 193.7Z" fill="#00101c" stroke="#00101c"></path><path d="M124.5 1.5L112.5 15.7L125 16.8Z" fill="#1d4e6b" stroke="#1d4e6b"></path><path d="M336 34.8L324.5 18.7L319.5 30.7Z" fill="#19435d" stroke="#19435d"></path><path d="M69.5 173.8L111.5 195.3L100.5 165.7Z" fill="#1d4e6b" stroke="#1d4e6b"></path><path d="M111.5 195.3L101 220.2L115.5 198.5Z" fill="#297ea6" stroke="#297ea6"></path><path d="M126.5 210.2L107.5 250L155 233.2Z" fill="#112e42" stroke="#112e42"></path><path d="M324.5 18.7L313.5 6.5L319.5 30.7Z" fill="#246688" stroke="#246688"></path><path d="M122 0L124.5 1.5L133 0Z" fill="#246688" stroke="#246688"></path><path d="M133 0L124.5 1.5L125 16.8Z" fill="#246688" stroke="#246688"></path><path d="M69 109.5L64 126.5L69.5 122.5Z" fill="#0c2435" stroke="#0c2435"></path><path d="M40 105.7L64 126.5L69 109.5Z" fill="#297ea6" stroke="#297ea6"></path><path d="M252.5 273.3L231 250L224 250Z" fill="#15384f" stroke="#15384f"></path><path d="M191.5 256.2L252.5 273.3L224 250Z" fill="#205a7a" stroke="#205a7a"></path><path d="M42.5 270.2L252.5 273.3L191.5 256.2Z" fill="#1d4e6b" stroke="#1d4e6b"></path><path d="M308.5 269.3L305 250L289.5 250Z" fill="#205a7a" stroke="#205a7a"></path><path d="M289.5 250L305 250L311.5 221.7Z" fill="#297ea6" stroke="#297ea6"></path><path d="M239 -12.3L181.5 -27.2L192 -13.3Z" fill="#00101c" stroke="#00101c"></path><path d="M192 -13.3L181.5 -27.2L180.5 0Z" fill="#00101c" stroke="#00101c"></path><path d="M147 -45.2L181.5 -27.2L239 -12.3Z" fill="#0c2435" stroke="#0c2435"></path><path d="M308.5 269.3L305.5 250L305 250Z" fill="#19435d" stroke="#19435d"></path><path d="M305 250L314.5 245.3L311.5 221.7Z" fill="#205a7a" stroke="#205a7a"></path><path d="M354.5 182.8L368 159L350.5 180.7Z" fill="#1d4e6b" stroke="#1d4e6b"></path><path d="M358.5 150.5L387.5 136.8L356 120.8Z" fill="#081a28" stroke="#081a28"></path><path d="M147.5 -25.2L122 0L133 0Z" fill="#15384f" stroke="#15384f"></path><path d="M124.5 1.5L116.5 0L112.5 15.7Z" fill="#246688" stroke="#246688"></path><path d="M80 31.3L73 56.7L83 58.8Z" fill="#205a7a" stroke="#205a7a"></path><path d="M69.5 143.2L69.5 173.8L100 159.5Z" fill="#00101c" stroke="#00101c"></path><path d="M66.5 179.8L69.5 173.8L53.5 170.2Z" fill="#081a28" stroke="#081a28"></path><path d="M305.5 250L314.5 245.3L305 250Z" fill="#081a28" stroke="#081a28"></path><path d="M387.5 136.8L373.5 98L356 120.8Z" fill="#0c2435" stroke="#0c2435"></path><path d="M364.5 101.2L380.5 61L338 86.7Z" fill="#277297" stroke="#277297"></path><path d="M80 31.3L83 58.8L112.5 15.7Z" fill="#081a28" stroke="#081a28"></path><path d="M83 58.8L73 56.7L81 89.3Z" fill="#205a7a" stroke="#205a7a"></path><path d="M147.5 -25.2L116.5 0L122 0Z" fill="#15384f" stroke="#15384f"></path><path d="M122 0L116.5 0L124.5 1.5Z" fill="#297ea6" stroke="#297ea6"></path><path d="M326.5 245.5L345 218.2L311.5 221.7Z" fill="#297ea6" stroke="#297ea6"></path><path d="M354.5 182.8L381.5 169L368 159Z" fill="#297ea6" stroke="#297ea6"></path><path d="M79.5 210.5L102.5 235.3L101 220.2Z" fill="#277297" stroke="#277297"></path><path d="M101 220.2L102.5 235.3L126.5 210.2Z" fill="#1d4e6b" stroke="#1d4e6b"></path><path d="M167 250L107.5 250L191.5 256.2Z" fill="#19435d" stroke="#19435d"></path><path d="M57 159.7L69.5 173.8L69.5 143.2Z" fill="#15384f" stroke="#15384f"></path><path d="M69.5 173.8L66.5 179.8L111.5 195.3Z" fill="#297ea6" stroke="#297ea6"></path><path d="M66.5 179.8L79.5 210.5L111.5 195.3Z" fill="#297ea6" stroke="#297ea6"></path><path d="M181.5 -27.2L147.5 -25.2L162.5 0Z" fill="#081a28" stroke="#081a28"></path><path d="M53.5 170.2L57 159.7L49.5 159.5Z" fill="#205a7a" stroke="#205a7a"></path><path d="M49.5 159.5L57 159.7L38.5 140Z" fill="#15384f" stroke="#15384f"></path><path d="M47.5 211.5L56.5 222.7L79.5 210.5Z" fill="#112e42" stroke="#112e42"></path><path d="M308.5 269.3L326.5 245.5L314.5 245.3Z" fill="#205a7a" stroke="#205a7a"></path><path d="M314.5 245.3L326.5 245.5L311.5 221.7Z" fill="#1d4e6b" stroke="#1d4e6b"></path><path d="M308.5 269.3L314.5 245.3L305.5 250Z" fill="#246688" stroke="#246688"></path><path d="M85 11.5L80 31.3L112.5 15.7Z" fill="#112e42" stroke="#112e42"></path><path d="M147 -45.2L106.5 0.7L116.5 0Z" fill="#1d4e6b" stroke="#1d4e6b"></path><path d="M116.5 0L106.5 0.7L112.5 15.7Z" fill="#00101c" stroke="#00101c"></path><path d="M328.5 0L313.5 6.5L324.5 18.7Z" fill="#112e42" stroke="#112e42"></path><path d="M328.5 0L316 -10.2L313.5 6.5Z" fill="#00101c" stroke="#00101c"></path><path d="M313.5 6.5L316 -10.2L290.5 0Z" fill="#112e42" stroke="#112e42"></path><path d="M290.5 0L316 -10.2L288 0Z" fill="#205a7a" stroke="#205a7a"></path><path d="M328.5 0L324.5 18.7L338.5 8.8Z" fill="#0c2435" stroke="#0c2435"></path><path d="M338.5 8.8L324.5 18.7L336 34.8Z" fill="#112e42" stroke="#112e42"></path><path d="M358 0L338.5 8.8L374 14.5Z" fill="#205a7a" stroke="#205a7a"></path><path d="M75.5 250L107.5 250L102.5 235.3Z" fill="#112e42" stroke="#112e42"></path><path d="M102.5 235.3L107.5 250L126.5 210.2Z" fill="#246688" stroke="#246688"></path><path d="M57 159.7L69.5 143.2L38.5 140Z" fill="#297ea6" stroke="#297ea6"></path><path d="M57 159.7L53.5 170.2L69.5 173.8Z" fill="#1d4e6b" stroke="#1d4e6b"></path><path d="M402 186.8L381.5 169L354.5 182.8Z" fill="#246688" stroke="#246688"></path><path d="M368 159L387.5 136.8L358.5 150.5Z" fill="#1d4e6b" stroke="#1d4e6b"></path><path d="M364.5 225.7L343 193.7L345 218.2Z" fill="#277297" stroke="#277297"></path><path d="M381.5 169L387.5 136.8L368 159Z" fill="#0c2435" stroke="#0c2435"></path><path d="M38.5 140L69.5 143.2L64 126.5Z" fill="#0c2435" stroke="#0c2435"></path><path d="M338.5 8.8L329.5 -6.2L328.5 0Z" fill="#246688" stroke="#246688"></path><path d="M328.5 0L329.5 -6.2L316 -10.2Z" fill="#15384f" stroke="#15384f"></path><path d="M252.5 273.3L308.5 269.3L261 270.2Z" fill="#297ea6" stroke="#297ea6"></path><path d="M261 270.2L308.5 269.3L285 250Z" fill="#00101c" stroke="#00101c"></path><path d="M38 75.8L81 89.3L73 56.7Z" fill="#15384f" stroke="#15384f"></path><path d="M106.5 0.7L85 11.5L112.5 15.7Z" fill="#19435d" stroke="#19435d"></path><path d="M88 0L85 11.5L106.5 0.7Z" fill="#277297" stroke="#277297"></path><path d="M386.5 79.7L380.5 61L373.5 98Z" fill="#112e42" stroke="#112e42"></path><path d="M373.5 98L380.5 61L364.5 101.2Z" fill="#19435d" stroke="#19435d"></path><path d="M338.5 8.8L358 0L329.5 -6.2Z" fill="#0c2435" stroke="#0c2435"></path><path d="M405 111.3L386.5 79.7L373.5 98Z" fill="#246688" stroke="#246688"></path><path d="M49.5 159.5L48 173.8L53.5 170.2Z" fill="#1d4e6b" stroke="#1d4e6b"></path><path d="M53.5 170.2L48 174.5L66.5 179.8Z" fill="#277297" stroke="#277297"></path><path d="M79.5 210.5L75.5 250L102.5 235.3Z" fill="#246688" stroke="#246688"></path><path d="M48 173.8L48 174.5L53.5 170.2Z" fill="#297ea6" stroke="#297ea6"></path><path d="M385 54.7L378 50.5L380.5 61Z" fill="#297ea6" stroke="#297ea6"></path><path d="M380.5 61L378 50.5L338 86.7Z" fill="#112e42" stroke="#112e42"></path><path d="M38 75.8L73 56.7L25 59.7Z" fill="#1d4e6b" stroke="#1d4e6b"></path><path d="M38 75.8L69 109.5L81 89.3Z" fill="#19435d" stroke="#19435d"></path><path d="M49.5 159.5L38 158.7L48 173.8Z" fill="#205a7a" stroke="#205a7a"></path><path d="M48 173.8L25 165L48 174.5Z" fill="#15384f" stroke="#15384f"></path><path d="M147 -45.2L88 0L106.5 0.7Z" fill="#112e42" stroke="#112e42"></path><path d="M25 59.7L73 56.7L40.5 19.5Z" fill="#0c2435" stroke="#0c2435"></path><path d="M430 71.7L387.5 69.5L386.5 79.7Z" fill="#0c2435" stroke="#0c2435"></path><path d="M386.5 79.7L387.5 69.5L380.5 61Z" fill="#277297" stroke="#277297"></path><path d="M40 105.7L38.5 140L64 126.5Z" fill="#00101c" stroke="#00101c"></path><path d="M372.5 250L364.5 225.7L326.5 245.5Z" fill="#0c2435" stroke="#0c2435"></path><path d="M326.5 245.5L364.5 225.7L345 218.2Z" fill="#081a28" stroke="#081a28"></path><path d="M387.5 69.5L385 54.7L380.5 61Z" fill="#1d4e6b" stroke="#1d4e6b"></path><path d="M374 14.5L338.5 8.8L336 34.8Z" fill="#277297" stroke="#277297"></path><path d="M316 -10.2L147 -45.2L239 -12.3Z" fill="#112e42" stroke="#112e42"></path><path d="M181.5 -27.2L147 -45.2L147.5 -25.2Z" fill="#15384f" stroke="#15384f"></path><path d="M147.5 -25.2L147 -45.2L116.5 0Z" fill="#112e42" stroke="#112e42"></path><path d="M38.5 140L38 158.7L49.5 159.5Z" fill="#277297" stroke="#277297"></path><path d="M73 56.7L80 31.3L40.5 19.5Z" fill="#246688" stroke="#246688"></path><path d="M5.5 163.2L25 165L38.5 140Z" fill="#297ea6" stroke="#297ea6"></path><path d="M38.5 140L25 165L38 158.7Z" fill="#112e42" stroke="#112e42"></path><path d="M430 47.5L385.5 44.8L385 54.7Z" fill="#15384f" stroke="#15384f"></path><path d="M385 54.7L385.5 44.8L378 50.5Z" fill="#081a28" stroke="#081a28"></path><path d="M329.5 -6.2L408 -14.2L316 -10.2Z" fill="#205a7a" stroke="#205a7a"></path><path d="M374 14.5L336 34.8L378 50.5Z" fill="#112e42" stroke="#112e42"></path><path d="M412.5 138.3L405 111.3L387.5 136.8Z" fill="#297ea6" stroke="#297ea6"></path><path d="M387.5 136.8L405 111.3L373.5 98Z" fill="#15384f" stroke="#15384f"></path><path d="M387.5 69.5L430 47.5L385 54.7Z" fill="#112e42" stroke="#112e42"></path><path d="M412.5 138.3L387.5 136.8L381.5 169Z" fill="#277297" stroke="#277297"></path><path d="M47.5 211.5L66.5 179.8L48 174.5Z" fill="#081a28" stroke="#081a28"></path><path d="M47.5 211.5L79.5 210.5L66.5 179.8Z" fill="#15384f" stroke="#15384f"></path><path d="M56.5 222.7L75.5 250L79.5 210.5Z" fill="#1d4e6b" stroke="#1d4e6b"></path><path d="M107.5 250L42.5 270.2L191.5 256.2Z" fill="#19435d" stroke="#19435d"></path><path d="M385.5 44.8L374 14.5L378 50.5Z" fill="#297ea6" stroke="#297ea6"></path><path d="M31 197.3L47.5 211.5L48 174.5Z" fill="#112e42" stroke="#112e42"></path><path d="M56.5 222.7L69 250L75.5 250Z" fill="#297ea6" stroke="#297ea6"></path><path d="M52 250L69 250L56.5 222.7Z" fill="#15384f" stroke="#15384f"></path><path d="M75.5 250L42.5 270.2L107.5 250Z" fill="#081a28" stroke="#081a28"></path><path d="M364.5 225.7L402 186.8L354.5 182.8Z" fill="#19435d" stroke="#19435d"></path><path d="M420.5 165.3L412.5 138.3L381.5 169Z" fill="#081a28" stroke="#081a28"></path><path d="M5.5 163.2L38.5 140L-5 124Z" fill="#0c2435" stroke="#0c2435"></path><path d="M38 158.7L25 165L48 173.8Z" fill="#1d4e6b" stroke="#1d4e6b"></path><path d="M25 165L31 197.3L48 174.5Z" fill="#15384f" stroke="#15384f"></path><path d="M41.5 253.3L52 250L30.5 250Z" fill="#246688" stroke="#246688"></path><path d="M366 273.3L372.5 250L326.5 245.5Z" fill="#297ea6" stroke="#297ea6"></path><path d="M364.5 225.7L422 220.5L402 186.8Z" fill="#19435d" stroke="#19435d"></path><path d="M430 125.3L418.5 119.2L412.5 138.3Z" fill="#19435d" stroke="#19435d"></path><path d="M412.5 138.3L418.5 119.2L405 111.3Z" fill="#00101c" stroke="#00101c"></path><path d="M405 111.3L430 71.7L386.5 79.7Z" fill="#277297" stroke="#277297"></path><path d="M385.5 44.8L403.5 0L374 14.5Z" fill="#15384f" stroke="#15384f"></path><path d="M40.5 19.5L80 31.3L50.5 3.8Z" fill="#15384f" stroke="#15384f"></path><path d="M38 75.8L19.5 79L40 105.7Z" fill="#112e42" stroke="#112e42"></path><path d="M366 273.3L374.5 250L372.5 250Z" fill="#19435d" stroke="#19435d"></path><path d="M372.5 250L374.5 250L364.5 225.7Z" fill="#0c2435" stroke="#0c2435"></path><path d="M25 59.7L19.5 79L38 75.8Z" fill="#277297" stroke="#277297"></path><path d="M50.5 3.8L80 31.3L85 11.5Z" fill="#112e42" stroke="#112e42"></path><path d="M50.5 3.8L85 11.5L88 0Z" fill="#19435d" stroke="#19435d"></path><path d="M49 0L50.5 3.8L88 0Z" fill="#19435d" stroke="#19435d"></path><path d="M430 162.3L420.5 165.3L430 162.8Z" fill="#081a28" stroke="#081a28"></path><path d="M402 186.8L420.5 165.3L381.5 169Z" fill="#277297" stroke="#277297"></path><path d="M52 250L56.5 222.7L30.5 250Z" fill="#112e42" stroke="#112e42"></path><path d="M69 250L42.5 270.2L75.5 250Z" fill="#297ea6" stroke="#297ea6"></path><path d="M147 -45.2L49 0L88 0Z" fill="#0c2435" stroke="#0c2435"></path><path d="M50.5 3.8L49 0L40.5 19.5Z" fill="#15384f" stroke="#15384f"></path><path d="M0 45.5L17.5 54.3L40.5 19.5Z" fill="#277297" stroke="#277297"></path><path d="M40.5 19.5L17.5 54.3L25 59.7Z" fill="#205a7a" stroke="#205a7a"></path><path d="M25 59.7L9.5 64.8L19.5 79Z" fill="#0c2435" stroke="#0c2435"></path><path d="M5.5 163.2L15 193.3L25 165Z" fill="#205a7a" stroke="#205a7a"></path><path d="M308.5 269.3L366 273.3L326.5 245.5Z" fill="#00101c" stroke="#00101c"></path><path d="M430 162.8L420.5 165.3L430 165Z" fill="#00101c" stroke="#00101c"></path><path d="M430 290.2L366 273.3L308.5 269.3Z" fill="#277297" stroke="#277297"></path><path d="M430 138.2L430 125.3L412.5 138.3Z" fill="#205a7a" stroke="#205a7a"></path><path d="M436.5 99.3L430 71.7L405 111.3Z" fill="#15384f" stroke="#15384f"></path><path d="M430 162.3L430 138.2L412.5 138.3Z" fill="#00101c" stroke="#00101c"></path><path d="M25 165L15 193.3L31 197.3Z" fill="#15384f" stroke="#15384f"></path><path d="M30.5 250L56.5 222.7L22 240.5Z" fill="#297ea6" stroke="#297ea6"></path><path d="M38.5 140L40 105.7L-5 124Z" fill="#112e42" stroke="#112e42"></path><path d="M0 102.8L40 105.7L0 97Z" fill="#205a7a" stroke="#205a7a"></path><path d="M0 45.5L9.5 64.8L17.5 54.3Z" fill="#112e42" stroke="#112e42"></path><path d="M17.5 54.3L9.5 64.8L25 59.7Z" fill="#1d4e6b" stroke="#1d4e6b"></path><path d="M420.5 165.3L430 170.5L430 165Z" fill="#112e42" stroke="#112e42"></path><path d="M420.5 165.3L430 162.3L412.5 138.3Z" fill="#081a28" stroke="#081a28"></path><path d="M420.5 165.3L430 182.7L430 170.5Z" fill="#205a7a" stroke="#205a7a"></path><path d="M420.5 165.3L402 186.8L430 182.7Z" fill="#297ea6" stroke="#297ea6"></path><path d="M0 97L40 105.7L19.5 79Z" fill="#205a7a" stroke="#205a7a"></path><path d="M430 182.7L402 186.8L422 220.5Z" fill="#19435d" stroke="#19435d"></path><path d="M56.5 222.7L47.5 211.5L22 240.5Z" fill="#081a28" stroke="#081a28"></path><path d="M52 250L42.5 270.2L69 250Z" fill="#246688" stroke="#246688"></path><path d="M0 87.3L0 97L19.5 79Z" fill="#1d4e6b" stroke="#1d4e6b"></path><path d="M436.5 99.3L405 111.3L418.5 119.2Z" fill="#081a28" stroke="#081a28"></path><path d="M0 77.2L0 87.3L19.5 79Z" fill="#15384f" stroke="#15384f"></path><path d="M448 125L436.5 99.3L430 125.3Z" fill="#081a28" stroke="#081a28"></path><path d="M430 125.3L436.5 99.3L418.5 119.2Z" fill="#19435d" stroke="#19435d"></path><path d="M448 125L430 125.3L430 138.2Z" fill="#1d4e6b" stroke="#1d4e6b"></path><path d="M448 125L430 138.2L430 162.3Z" fill="#1d4e6b" stroke="#1d4e6b"></path><path d="M448 125L430 162.3L430 162.8Z" fill="#246688" stroke="#246688"></path><path d="M448 125L430 162.8L430 165Z" fill="#277297" stroke="#277297"></path><path d="M422 220.5L364.5 225.7L374.5 250Z" fill="#246688" stroke="#246688"></path><path d="M430 170.5L448 125L430 165Z" fill="#1d4e6b" stroke="#1d4e6b"></path><path d="M-19.5 61.8L0 77.2L9.5 64.8Z" fill="#0c2435" stroke="#0c2435"></path><path d="M9.5 64.8L0 77.2L19.5 79Z" fill="#1d4e6b" stroke="#1d4e6b"></path><path d="M0 102.8L-5 124L40 105.7Z" fill="#081a28" stroke="#081a28"></path><path d="M-22.5 105.3L-5 124L0 102.8Z" fill="#205a7a" stroke="#205a7a"></path><path d="M-22.5 105.3L0 102.8L0 97Z" fill="#1d4e6b" stroke="#1d4e6b"></path><path d="M-22.5 105.3L0 97L0 87.3Z" fill="#277297" stroke="#277297"></path><path d="M430 47.5L403.5 0L385.5 44.8Z" fill="#205a7a" stroke="#205a7a"></path><path d="M374 14.5L403.5 0L358 0Z" fill="#00101c" stroke="#00101c"></path><path d="M358 0L408 -14.2L329.5 -6.2Z" fill="#081a28" stroke="#081a28"></path><path d="M316 -10.2L408 -14.2L147 -45.2Z" fill="#297ea6" stroke="#297ea6"></path><path d="M22 240.5L31 197.3L0 214.7Z" fill="#277297" stroke="#277297"></path><path d="M22 240.5L47.5 211.5L31 197.3Z" fill="#19435d" stroke="#19435d"></path><path d="M449 45.2L430 47.5L430 71.7Z" fill="#1d4e6b" stroke="#1d4e6b"></path><path d="M430 71.7L430 47.5L387.5 69.5Z" fill="#0c2435" stroke="#0c2435"></path><path d="M430 250L422 220.5L374.5 250Z" fill="#1d4e6b" stroke="#1d4e6b"></path><path d="M0 214.7L31 197.3L15 193.3Z" fill="#297ea6" stroke="#297ea6"></path><path d="M-2 192.8L15 193.3L5.5 163.2Z" fill="#297ea6" stroke="#297ea6"></path><path d="M19.5 254.3L38 264.2L30.5 250Z" fill="#19435d" stroke="#19435d"></path><path d="M30.5 250L38 264.2L41.5 253.3Z" fill="#00101c" stroke="#00101c"></path><path d="M41.5 253.3L42.5 270.2L52 250Z" fill="#277297" stroke="#277297"></path><path d="M38 264.2L42.5 270.2L41.5 253.3Z" fill="#205a7a" stroke="#205a7a"></path><path d="M-22.5 105.3L-2 192.8L5.5 163.2Z" fill="#081a28" stroke="#081a28"></path><path d="M-2 192.8L0 199.3L15 193.3Z" fill="#0c2435" stroke="#0c2435"></path><path d="M-0.5 13.5L0 45.5L40.5 19.5Z" fill="#19435d" stroke="#19435d"></path><path d="M-19.5 61.8L-22.5 105.3L0 87.3Z" fill="#277297" stroke="#277297"></path><path d="M430 182.7L448 125L430 170.5Z" fill="#112e42" stroke="#112e42"></path><path d="M436.5 99.3L456.5 94.5L430 71.7Z" fill="#0c2435" stroke="#0c2435"></path><path d="M447.5 271.2L448 125L430 182.7Z" fill="#1d4e6b" stroke="#1d4e6b"></path><path d="M0 -20.2L17.5 0L49 0Z" fill="#297ea6" stroke="#297ea6"></path><path d="M49 0L17.5 0L40.5 19.5Z" fill="#0c2435" stroke="#0c2435"></path><path d="M430 0L408 -14.2L403.5 0Z" fill="#277297" stroke="#277297"></path><path d="M403.5 0L408 -14.2L358 0Z" fill="#19435d" stroke="#19435d"></path><path d="M-2 192.8L0 214.7L0 199.3Z" fill="#297ea6" stroke="#297ea6"></path><path d="M0 199.3L0 214.7L15 193.3Z" fill="#081a28" stroke="#081a28"></path><path d="M22 240.5L19.5 254.3L30.5 250Z" fill="#297ea6" stroke="#297ea6"></path><path d="M38 264.2L0 280.2L42.5 270.2Z" fill="#246688" stroke="#246688"></path><path d="M448 125L451.5 99.8L436.5 99.3Z" fill="#297ea6" stroke="#297ea6"></path><path d="M430 47.5L430 0L403.5 0Z" fill="#246688" stroke="#246688"></path><path d="M0 250L19.5 254.3L22 240.5Z" fill="#297ea6" stroke="#297ea6"></path><path d="M-19.5 61.8L0 87.3L0 77.2Z" fill="#1d4e6b" stroke="#1d4e6b"></path><path d="M-5 124L-22.5 105.3L5.5 163.2Z" fill="#112e42" stroke="#112e42"></path><path d="M-2 192.8L0 228.5L0 214.7Z" fill="#00101c" stroke="#00101c"></path><path d="M-22.5 105.3L0 228.5L-2 192.8Z" fill="#246688" stroke="#246688"></path><path d="M0 214.7L0 228.5L22 240.5Z" fill="#297ea6" stroke="#297ea6"></path><path d="M447.5 271.2L456.5 94.5L448 125Z" fill="#297ea6" stroke="#297ea6"></path><path d="M448 125L456.5 94.5L451.5 99.8Z" fill="#15384f" stroke="#15384f"></path><path d="M451.5 99.8L456.5 94.5L436.5 99.3Z" fill="#112e42" stroke="#112e42"></path><path d="M17.5 0L-0.5 13.5L40.5 19.5Z" fill="#205a7a" stroke="#205a7a"></path><path d="M0 45.5L-19.5 61.8L9.5 64.8Z" fill="#1d4e6b" stroke="#1d4e6b"></path><path d="M-15.5 0L-19.5 61.8L0 45.5Z" fill="#19435d" stroke="#19435d"></path><path d="M456.5 94.5L449 45.2L430 71.7Z" fill="#205a7a" stroke="#205a7a"></path><path d="M449 45.2L430 0L430 47.5Z" fill="#081a28" stroke="#081a28"></path><path d="M430 290.2L430 250L374.5 250Z" fill="#246688" stroke="#246688"></path><path d="M422 220.5L433 250L430 182.7Z" fill="#00101c" stroke="#00101c"></path><path d="M17.5 0L0 1.7L-0.5 13.5Z" fill="#1d4e6b" stroke="#1d4e6b"></path><path d="M-0.5 13.5L-15.5 0L0 45.5Z" fill="#277297" stroke="#277297"></path><path d="M0 0L0 1.7L17.5 0Z" fill="#297ea6" stroke="#297ea6"></path><path d="M0 -20.2L0 0L17.5 0Z" fill="#1d4e6b" stroke="#1d4e6b"></path><path d="M0 1.7L-15.5 0L-0.5 13.5Z" fill="#00101c" stroke="#00101c"></path><path d="M447.5 271.2L433 250L430 250Z" fill="#0c2435" stroke="#0c2435"></path><path d="M430 250L433 250L422 220.5Z" fill="#205a7a" stroke="#205a7a"></path><path d="M-22.5 105.3L0 250L0 228.5Z" fill="#15384f" stroke="#15384f"></path><path d="M0 228.5L0 250L22 240.5Z" fill="#081a28" stroke="#081a28"></path><path d="M19.5 254.3L0 280.2L38 264.2Z" fill="#205a7a" stroke="#205a7a"></path><path d="M449 45.2L430 -12.2L430 0Z" fill="#0c2435" stroke="#0c2435"></path><path d="M430 0L430 -12.2L408 -14.2Z" fill="#00101c" stroke="#00101c"></path><path d="M408 -14.2L430 -12.2L147 -45.2Z" fill="#19435d" stroke="#19435d"></path><path d="M147 -45.2L0 -20.2L49 0Z" fill="#112e42" stroke="#112e42"></path><path d="M0 0L-15.5 0L0 1.7Z" fill="#15384f" stroke="#15384f"></path><path d="M0 -20.2L-2.5 -19.3L0 0Z" fill="#15384f" stroke="#15384f"></path><path d="M-2.5 -19.3L-15.5 0L0 0Z" fill="#277297" stroke="#277297"></path><path d="M-19.5 61.8L-15.5 0L-22.5 105.3Z" fill="#246688" stroke="#246688"></path><path d="M-22.5 105.3L0 280.2L0 250Z" fill="#246688" stroke="#246688"></path><path d="M0 250L0 280.2L19.5 254.3Z" fill="#1d4e6b" stroke="#1d4e6b"></path><path d="M42.5 270.2L0 280.2L252.5 273.3Z" fill="#205a7a" stroke="#205a7a"></path><path d="M252.5 273.3L430 290.2L308.5 269.3Z" fill="#277297" stroke="#277297"></path><path d="M0 280.2L430 290.2L252.5 273.3Z" fill="#19435d" stroke="#19435d"></path><path d="M366 273.3L430 290.2L374.5 250Z" fill="#00101c" stroke="#00101c"></path><path d="M433 250L447.5 271.2L430 182.7Z" fill="#277297" stroke="#277297"></path><path d="M430 290.2L447.5 271.2L430 250Z" fill="#0c2435" stroke="#0c2435"></path></g></svg>